<svg xmlns="http://www.w3.org/2000/svg" viewBox="0 0 305 346" fill="#a86add">
<g transform="translate(0,346) scale(0.1,-0.1)">
<path d="M1465 3401 c-41 -18 -148 -129 -355 -364 -108 -124 -129 -162 -130
-234 0 -72 8 -87 102 -205 161 -199 408 -504 524 -648 177 -218 314 -387 458
-565 211 -261 228 -275 328 -275 101 0 135 29 473 405 118 131 145 176 145
245 0 67 -25 110 -165 280 -70 85 -152 187 -183 225 -146 181 -198 215 -304
195 -65 -13 -93 -34 -198 -153 -47 -53 -89 -97 -95 -97 -9 1 -215 250 -223
270 -1 3 41 56 94 116 53 60 103 123 110 141 20 45 17 104 -5 157 -19 44 -261
355 -345 444 -76 80 -149 100 -231 63z M554 2351 c-25 -11 -73 -54 -126 -112
-47 -52 -143 -157 -213 -234 -72 -78 -137 -160 -148 -185 -31 -68 -27 -138 11
-199 31 -50 350 -459 406 -520 60 -66 167 -90 241 -55 33 15 113 94 210 207
l50 58 105 -127 c154 -186 148 -157 54 -259 -127 -140 -153 -175 -165 -232
-10 -45 -9 -59 5 -98 23 -60 379 -502 426 -529 48 -28 125 -26 179 4 36 21
348 358 418 452 58 79 64 185 15 262 -15 23 -98 130 -184 237 -86 107 -300
372 -475 589 -175 217 -367 456 -427 530 -60 74 -120 148 -135 164 -57 63
-166 84 -247 47z"/>
</g>
</svg>
